<svg width="159" height="21" viewBox="0 0 159 21" fill="none" xmlns="http://www.w3.org/2000/svg">
<path d="M86.923 15.04C86.923 15.7067 86.7563 16.3333 86.423 16.92C86.103 17.5067 85.623 18 84.983 18.4C84.3563 18.8 83.6096 19.04 82.743 19.12V20.74H81.443V19.12C80.1896 19 79.1763 18.6067 78.403 17.94C77.6296 17.2733 77.243 16.3933 77.243 15.3H79.683C79.723 15.82 79.8896 16.2533 80.183 16.6C80.4763 16.9333 80.8963 17.1467 81.443 17.24V12.84C80.5496 12.6133 79.823 12.3867 79.263 12.16C78.703 11.92 78.223 11.5467 77.823 11.04C77.4363 10.5333 77.243 9.84 77.243 8.96C77.243 7.85333 77.6296 6.94 78.403 6.22C79.1763 5.48667 80.1896 5.06 81.443 4.94V3.32H82.743V4.94C83.9163 5.04667 84.8563 5.42 85.563 6.06C86.283 6.68667 86.6896 7.55333 86.783 8.66H84.343C84.303 8.24667 84.143 7.88 83.863 7.56C83.583 7.22667 83.2096 7 82.743 6.88V11.2C83.6363 11.4133 84.363 11.64 84.923 11.88C85.483 12.1067 85.9563 12.4733 86.343 12.98C86.7296 13.4733 86.923 14.16 86.923 15.04ZM79.563 8.84C79.563 9.38667 79.723 9.81333 80.043 10.12C80.3763 10.4267 80.843 10.6733 81.443 10.86V6.82C80.8696 6.88667 80.4096 7.09333 80.063 7.44C79.7296 7.78667 79.563 8.25333 79.563 8.84ZM82.743 17.24C83.3296 17.1467 83.7896 16.9133 84.123 16.54C84.4563 16.1533 84.623 15.6933 84.623 15.16C84.623 14.6267 84.4563 14.2133 84.123 13.92C83.803 13.6133 83.343 13.3667 82.743 13.18V17.24ZM90.2108 8.02C90.2908 6.78 90.7641 5.81333 91.6308 5.12C92.5108 4.42667 93.6308 4.08 94.9908 4.08C95.9241 4.08 96.7308 4.24667 97.4108 4.58C98.0908 4.91333 98.6041 5.36667 98.9508 5.94C99.2974 6.51333 99.4708 7.16 99.4708 7.88C99.4708 8.70667 99.2508 9.41333 98.8108 10C98.3708 10.5867 97.8441 10.98 97.2308 11.18V11.26C98.0174 11.5 98.6308 11.94 99.0708 12.58C99.5108 13.2067 99.7308 14.0133 99.7308 15C99.7308 15.7867 99.5508 16.4867 99.1908 17.1C98.8308 17.7133 98.2974 18.2 97.5908 18.56C96.8841 18.9067 96.0374 19.08 95.0508 19.08C93.6108 19.08 92.4241 18.7133 91.4908 17.98C90.5708 17.2333 90.0774 16.1667 90.0108 14.78H92.2108C92.2641 15.4867 92.5374 16.0667 93.0308 16.52C93.5241 16.96 94.1908 17.18 95.0308 17.18C95.8441 17.18 96.4708 16.96 96.9108 16.52C97.3508 16.0667 97.5708 15.4867 97.5708 14.78C97.5708 13.8467 97.2708 13.1867 96.6708 12.8C96.0841 12.4 95.1774 12.2 93.9508 12.2H93.4308V10.32H93.9708C95.0508 10.3067 95.8708 10.1267 96.4308 9.78C97.0041 9.43333 97.2908 8.88667 97.2908 8.14C97.2908 7.5 97.0841 6.99333 96.6708 6.62C96.2574 6.23333 95.6708 6.04 94.9108 6.04C94.1641 6.04 93.5841 6.23333 93.1708 6.62C92.7574 6.99333 92.5108 7.46 92.4308 8.02H90.2108ZM102.126 11.52C102.126 9.21333 102.512 7.41333 103.286 6.12C104.072 4.81333 105.419 4.16 107.326 4.16C109.232 4.16 110.572 4.81333 111.346 6.12C112.132 7.41333 112.526 9.21333 112.526 11.52C112.526 13.8533 112.132 15.68 111.346 17C110.572 18.3067 109.232 18.96 107.326 18.96C105.419 18.96 104.072 18.3067 103.286 17C102.512 15.68 102.126 13.8533 102.126 11.52ZM110.286 11.52C110.286 10.44 110.212 9.52667 110.066 8.78C109.932 8.03333 109.652 7.42667 109.226 6.96C108.799 6.48 108.166 6.24 107.326 6.24C106.486 6.24 105.852 6.48 105.426 6.96C104.999 7.42667 104.712 8.03333 104.566 8.78C104.432 9.52667 104.366 10.44 104.366 11.52C104.366 12.64 104.432 13.58 104.566 14.34C104.699 15.1 104.979 15.7133 105.406 16.18C105.846 16.6467 106.486 16.88 107.326 16.88C108.166 16.88 108.799 16.6467 109.226 16.18C109.666 15.7133 109.952 15.1 110.086 14.34C110.219 13.58 110.286 12.64 110.286 11.52ZM114.938 11.52C114.938 9.21333 115.325 7.41333 116.098 6.12C116.885 4.81333 118.232 4.16 120.138 4.16C122.045 4.16 123.385 4.81333 124.158 6.12C124.945 7.41333 125.338 9.21333 125.338 11.52C125.338 13.8533 124.945 15.68 124.158 17C123.385 18.3067 122.045 18.96 120.138 18.96C118.232 18.96 116.885 18.3067 116.098 17C115.325 15.68 114.938 13.8533 114.938 11.52ZM123.098 11.52C123.098 10.44 123.025 9.52667 122.878 8.78C122.745 8.03333 122.465 7.42667 122.038 6.96C121.612 6.48 120.978 6.24 120.138 6.24C119.298 6.24 118.665 6.48 118.238 6.96C117.812 7.42667 117.525 8.03333 117.378 8.78C117.245 9.52667 117.178 10.44 117.178 11.52C117.178 12.64 117.245 13.58 117.378 14.34C117.512 15.1 117.792 15.7133 118.218 16.18C118.658 16.6467 119.298 16.88 120.138 16.88C120.978 16.88 121.612 16.6467 122.038 16.18C122.478 15.7133 122.765 15.1 122.898 14.34C123.032 13.58 123.098 12.64 123.098 11.52ZM128.971 19.14C128.557 19.14 128.211 19 127.931 18.72C127.651 18.44 127.511 18.0933 127.511 17.68C127.511 17.2667 127.651 16.92 127.931 16.64C128.211 16.36 128.557 16.22 128.971 16.22C129.371 16.22 129.711 16.36 129.991 16.64C130.271 16.92 130.411 17.2667 130.411 17.68C130.411 18.0933 130.271 18.44 129.991 18.72C129.711 19 129.371 19.14 128.971 19.14ZM132.575 11.52C132.575 9.21333 132.962 7.41333 133.735 6.12C134.522 4.81333 135.868 4.16 137.775 4.16C139.682 4.16 141.022 4.81333 141.795 6.12C142.582 7.41333 142.975 9.21333 142.975 11.52C142.975 13.8533 142.582 15.68 141.795 17C141.022 18.3067 139.682 18.96 137.775 18.96C135.868 18.96 134.522 18.3067 133.735 17C132.962 15.68 132.575 13.8533 132.575 11.52ZM140.735 11.52C140.735 10.44 140.662 9.52667 140.515 8.78C140.382 8.03333 140.102 7.42667 139.675 6.96C139.248 6.48 138.615 6.24 137.775 6.24C136.935 6.24 136.302 6.48 135.875 6.96C135.448 7.42667 135.162 8.03333 135.015 8.78C134.882 9.52667 134.815 10.44 134.815 11.52C134.815 12.64 134.882 13.58 135.015 14.34C135.148 15.1 135.428 15.7133 135.855 16.18C136.295 16.6467 136.935 16.88 137.775 16.88C138.615 16.88 139.248 16.6467 139.675 16.18C140.115 15.7133 140.402 15.1 140.535 14.34C140.668 13.58 140.735 12.64 140.735 11.52ZM145.388 11.52C145.388 9.21333 145.774 7.41333 146.548 6.12C147.334 4.81333 148.681 4.16 150.588 4.16C152.494 4.16 153.834 4.81333 154.608 6.12C155.394 7.41333 155.788 9.21333 155.788 11.52C155.788 13.8533 155.394 15.68 154.608 17C153.834 18.3067 152.494 18.96 150.588 18.96C148.681 18.96 147.334 18.3067 146.548 17C145.774 15.68 145.388 13.8533 145.388 11.52ZM153.548 11.52C153.548 10.44 153.474 9.52667 153.328 8.78C153.194 8.03333 152.914 7.42667 152.488 6.96C152.061 6.48 151.428 6.24 150.588 6.24C149.748 6.24 149.114 6.48 148.688 6.96C148.261 7.42667 147.974 8.03333 147.828 8.78C147.694 9.52667 147.628 10.44 147.628 11.52C147.628 12.64 147.694 13.58 147.828 14.34C147.961 15.1 148.241 15.7133 148.668 16.18C149.108 16.6467 149.748 16.88 150.588 16.88C151.428 16.88 152.061 16.6467 152.488 16.18C152.928 15.7133 153.214 15.1 153.348 14.34C153.481 13.58 153.548 12.64 153.548 11.52Z" fill="#8B8E99"/>
<path d="M159 12.5L72 12.5" stroke="#8B8E99" stroke-width="2"/>
</svg>
